<svg id="svg" version="1.1" xmlns="http://www.w3.org/2000/svg" xmlns:xlink="http://www.w3.org/1999/xlink" width="400" height="400" viewBox="0, 0, 400,400"><g id="svgg"><path id="path0" d="M0.000 200.000 L 0.000 400.000 200.000 400.000 L 400.000 400.000 400.000 200.000 L 400.000 0.000 200.000 0.000 L 0.000 0.000 0.000 200.000 M211.299 115.220 C 225.133 129.522,225.119 127.682,211.493 141.523 C 201.854 151.314,201.067 151.946,199.526 151.135 C 198.155 150.412,198.059 150.080,198.053 145.996 L 198.047 142.188 195.542 142.188 C 180.962 142.188,166.588 153.338,162.877 167.528 C 162.059 170.655,162.036 170.635,166.571 170.676 C 173.918 170.741,173.359 172.195,161.418 184.075 C 147.433 197.988,149.357 198.034,134.815 183.433 C 125.903 174.484,125.312 173.803,125.569 172.779 C 126.043 170.891,126.400 170.736,130.557 170.619 L 134.478 170.508 135.368 166.211 C 141.156 138.282,165.809 116.252,193.164 114.564 C 198.113 114.259,198.047 114.317,198.047 110.271 C 198.047 106.388,198.536 105.469,200.603 105.469 C 201.742 105.469,202.799 106.433,211.299 115.220 M190.825 119.512 C 186.878 119.693,186.122 119.828,186.018 120.375 C 185.867 121.164,193.376 121.580,196.680 120.965 C 199.312 120.475,201.442 121.103,203.240 122.901 C 209.649 129.311,202.593 139.437,194.555 135.363 C 192.466 134.305,191.536 134.413,192.014 135.659 C 192.744 137.560,198.180 138.784,201.041 137.691 C 209.473 134.471,209.478 122.715,201.049 119.553 C 199.932 119.134,199.147 119.131,190.825 119.512 M197.266 126.164 C 197.266 129.616,197.320 129.678,200.472 129.823 C 202.351 129.910,202.158 128.848,200.195 128.299 L 198.633 127.862 198.517 125.455 C 198.327 121.521,197.266 122.123,197.266 126.164 M180.643 123.862 C 180.068 124.792,181.343 125.156,185.253 125.175 L 189.258 125.195 189.065 126.172 C 188.959 126.709,188.872 128.071,188.870 129.199 L 188.867 131.250 185.046 131.250 C 181.903 131.250,181.183 131.361,180.986 131.875 C 180.585 132.920,181.645 133.191,186.133 133.191 C 191.103 133.191,191.612 133.014,191.031 131.485 C 190.349 129.691,190.539 126.505,191.406 125.195 C 191.833 124.551,192.184 123.892,192.185 123.730 C 192.189 123.249,180.942 123.378,180.643 123.862 M172.852 127.734 C 172.246 128.715,173.368 128.906,179.711 128.906 C 186.068 128.906,186.328 128.876,186.328 128.125 C 186.328 127.247,173.385 126.872,172.852 127.734 M232.565 135.185 C 233.639 136.030,233.955 137.886,233.222 139.045 C 232.589 140.046,233.950 141.797,235.361 141.797 C 236.026 141.797,236.893 142.034,237.289 142.323 C 238.603 143.284,244.782 140.515,245.100 138.823 C 245.573 136.300,248.820 135.396,250.362 137.357 C 252.497 140.071,249.793 143.094,246.543 141.628 C 244.310 140.621,238.545 142.852,238.356 144.795 C 238.195 146.458,244.263 149.587,246.141 148.809 C 248.834 147.693,250.547 151.654,247.991 153.088 C 246.579 153.881,244.922 152.869,244.922 151.214 C 244.922 150.007,238.220 146.026,237.674 146.909 C 237.153 147.753,240.358 152.330,241.476 152.337 C 243.407 152.350,244.630 155.214,243.281 156.563 C 241.733 158.111,239.247 156.626,239.554 154.337 C 239.889 151.840,237.467 147.665,235.679 147.660 C 234.817 147.657,234.169 147.332,233.531 146.582 C 232.290 145.123,229.438 145.533,228.414 147.317 C 227.680 148.595,225.482 148.903,224.608 147.850 C 222.765 145.630,226.030 142.432,227.962 144.566 C 228.731 145.416,230.801 145.399,232.426 144.529 C 234.422 143.461,233.191 139.974,230.818 139.974 C 228.413 139.974,227.278 137.084,228.974 135.279 C 230.026 134.160,231.221 134.128,232.565 135.185 M146.382 156.559 C 136.541 160.089,137.975 175.853,148.177 176.296 C 150.655 176.404,150.548 174.953,148.047 174.527 C 138.502 172.901,139.730 157.813,149.407 157.813 C 152.462 157.813,155.789 159.532,154.240 160.310 C 152.433 161.220,152.943 161.719,155.682 161.719 L 158.304 161.719 158.044 159.761 C 157.643 156.735,156.467 155.141,155.988 156.973 C 155.806 157.668,155.698 157.659,153.582 156.789 C 150.963 155.712,148.926 155.647,146.382 156.559 M149.097 160.799 C 148.949 160.947,148.828 162.355,148.828 163.927 L 148.828 166.787 151.617 168.192 C 153.771 169.276,154.477 169.480,154.720 169.088 C 155.157 168.381,154.627 167.866,152.373 166.810 L 150.424 165.898 150.309 163.351 C 150.205 161.014,149.779 160.117,149.097 160.799 M252.656 165.010 C 254.483 165.976,273.438 185.298,273.438 186.195 C 273.438 188.270,272.111 189.025,268.250 189.146 L 264.659 189.258 264.006 192.415 C 258.183 220.534,233.517 242.345,205.584 244.075 L 201.367 244.336 201.264 248.047 C 201.074 254.848,199.519 254.904,193.153 248.340 C 190.600 245.708,186.197 241.179,183.368 238.276 C 175.143 229.833,175.030 230.341,188.019 217.285 C 198.665 206.584,199.065 206.306,200.753 208.451 C 201.436 209.320,201.563 210.031,201.563 213.003 L 201.563 216.525 205.566 216.269 C 219.879 215.356,231.422 206.545,235.558 193.375 C 236.197 191.342,236.719 189.541,236.719 189.371 C 236.719 189.201,235.041 189.063,232.990 189.063 C 228.103 189.063,226.296 187.607,227.846 184.919 C 228.434 183.899,247.166 165.532,248.242 164.921 C 249.327 164.304,251.399 164.346,252.656 165.010 M248.438 184.291 C 248.438 184.460,247.119 186.924,245.508 189.767 C 243.896 192.609,242.578 195.108,242.578 195.319 C 242.578 195.537,243.850 195.703,245.508 195.703 C 249.096 195.703,249.077 195.412,245.894 201.535 C 244.506 204.206,243.421 206.442,243.484 206.505 C 243.627 206.648,251.210 198.538,253.493 195.799 C 255.538 193.345,255.457 193.218,251.732 193.030 C 248.199 192.852,248.205 193.017,251.563 188.281 C 254.883 183.598,254.901 183.984,251.367 183.984 C 249.756 183.984,248.438 184.122,248.438 184.291 M152.656 203.203 C 153.424 203.971,153.224 205.779,152.318 206.264 C 151.366 206.774,149.609 205.855,149.609 204.848 C 149.609 203.080,151.508 202.055,152.656 203.203 M167.645 204.943 C 168.977 206.148,168.262 208.594,166.578 208.594 C 165.868 208.594,165.505 208.884,165.233 209.668 C 165.027 210.259,164.583 211.256,164.245 211.884 C 163.211 213.806,164.754 215.009,167.771 214.632 C 169.912 214.364,170.315 214.134,171.793 212.333 C 173.038 210.815,176.172 212.205,176.172 214.276 C 176.172 216.674,173.771 217.746,171.909 216.179 C 170.474 214.972,165.752 215.101,165.370 216.357 C 165.264 216.707,165.033 217.267,164.857 217.604 C 164.324 218.621,165.126 219.512,166.528 219.459 C 169.167 219.360,170.887 221.546,169.859 223.692 C 168.259 227.030,163.205 224.898,164.424 221.399 C 165.017 219.699,164.229 218.867,162.224 219.075 C 160.323 219.273,158.056 223.398,158.464 225.916 C 158.848 228.279,156.766 229.457,155.011 227.869 C 153.718 226.699,154.657 224.219,156.392 224.219 C 157.094 224.219,157.538 223.666,158.603 221.466 C 160.491 217.562,159.930 216.876,155.762 217.996 C 154.956 218.212,154.297 218.623,154.297 218.908 C 154.297 221.935,149.025 222.315,148.279 219.342 C 147.546 216.424,151.225 214.377,153.258 216.572 C 154.131 217.513,154.148 217.515,156.341 216.905 C 160.158 215.842,160.513 212.707,156.820 212.684 C 153.889 212.667,152.467 209.975,154.236 207.791 C 156.040 205.562,159.696 207.599,159.222 210.569 C 158.936 212.351,159.519 212.937,161.436 212.797 C 163.000 212.682,165.383 208.977,164.476 208.070 C 162.644 206.237,165.721 203.202,167.645 204.943 M197.419 221.257 C 196.941 222.504,197.062 222.527,204.576 222.606 C 210.971 222.673,213.971 225.263,213.100 229.964 C 212.344 234.041,210.456 235.156,204.308 235.156 C 200.008 235.156,199.947 235.169,200.070 236.035 C 200.217 237.069,206.032 237.514,208.991 236.717 C 215.950 234.843,216.766 224.397,210.174 221.564 C 207.993 220.626,197.756 220.379,197.419 221.257 M193.039 225.098 C 193.200 226.231,201.428 226.690,202.319 225.615 C 203.258 224.484,202.361 224.219,197.606 224.219 C 192.964 224.219,192.916 224.228,193.039 225.098 M206.265 226.924 L 205.096 229.239 206.259 229.494 C 207.643 229.798,207.628 229.705,206.613 231.694 C 205.869 233.153,205.844 234.228,206.574 233.372 C 210.309 228.999,210.743 228.125,209.180 228.125 C 208.079 228.125,207.974 227.598,208.789 226.172 C 209.565 224.814,209.515 224.609,208.404 224.609 C 207.611 224.609,207.220 225.032,206.265 226.924 M187.598 228.027 C 186.653 228.137,186.328 228.368,186.328 228.931 C 186.328 229.650,186.661 229.688,192.969 229.688 C 199.247 229.688,199.609 229.647,199.609 228.941 C 199.609 227.878,193.129 227.385,187.598 228.027 M193.428 232.507 C 193.552 233.377,193.668 233.399,198.161 233.415 C 202.580 233.430,202.763 233.398,202.653 232.633 C 202.547 231.889,202.230 231.829,197.920 231.726 C 193.308 231.615,193.302 231.616,193.428 232.507 M237.772 267.518 C 243.389 270.383,244.310 278.369,239.499 282.488 C 233.101 287.963,223.491 283.018,224.345 274.689 C 225.007 268.224,231.920 264.532,237.772 267.518 M257.087 266.860 C 263.161 268.679,265.394 277.159,261.014 281.774 C 257.133 285.864,250.062 285.588,246.901 281.224 C 241.604 273.911,248.440 264.269,257.087 266.860 M130.859 268.359 L 130.859 269.922 126.172 269.922 L 121.484 269.922 121.484 271.875 L 121.484 273.828 125.586 273.828 L 129.688 273.828 129.688 275.391 L 129.688 276.953 125.879 276.999 C 123.784 277.025,121.938 277.025,121.777 276.999 C 121.616 276.974,121.484 277.920,121.484 279.102 L 121.484 281.250 126.172 281.250 L 130.859 281.250 130.859 282.813 L 130.859 284.375 124.316 284.375 L 117.773 284.376 117.885 275.586 L 117.997 266.797 124.428 266.797 L 130.859 266.797 130.859 268.359 M138.500 273.012 C 139.772 276.430,140.916 279.163,141.042 279.085 C 141.169 279.007,142.299 276.210,143.554 272.870 L 145.836 266.797 147.722 266.797 C 150.065 266.797,150.220 265.876,146.196 275.896 L 142.777 284.409 140.880 284.294 L 138.983 284.180 136.171 277.148 C 134.624 273.281,133.061 269.370,132.698 268.457 L 132.038 266.797 134.113 266.797 L 136.188 266.797 138.500 273.012 M165.234 268.359 L 165.234 269.922 160.547 269.922 L 155.859 269.922 155.859 271.875 L 155.859 273.828 159.983 273.828 L 164.107 273.828 163.987 275.488 C 163.905 276.628,163.684 277.160,163.281 277.187 C 162.959 277.208,161.157 277.252,159.277 277.284 L 155.859 277.344 155.859 279.297 L 155.859 281.250 160.547 281.250 L 165.234 281.250 165.234 282.813 L 165.234 284.375 158.594 284.375 L 151.953 284.375 151.953 275.586 L 151.953 266.797 158.594 266.797 L 165.234 266.797 165.234 268.359 M174.717 270.824 C 176.388 273.014,178.358 275.508,179.097 276.367 L 180.439 277.930 180.454 272.363 L 180.469 266.797 182.227 266.797 L 183.984 266.797 183.984 275.586 L 183.984 284.375 182.454 284.375 C 180.948 284.375,180.854 284.286,176.704 278.927 C 174.384 275.930,172.412 273.551,172.323 273.641 C 172.065 273.899,171.978 275.277,171.925 279.980 L 171.875 284.375 170.117 284.375 L 168.359 284.375 168.359 275.586 L 168.359 266.797 170.020 266.820 C 171.658 266.844,171.720 266.897,174.717 270.824 M201.563 268.342 L 201.563 269.888 198.730 270.002 L 195.898 270.117 195.792 277.246 L 195.686 284.375 193.937 284.375 L 192.188 284.375 192.188 277.148 L 192.188 269.922 189.453 269.922 L 186.719 269.922 186.719 268.359 L 186.719 266.797 194.141 266.797 L 201.563 266.797 201.563 268.342 M214.453 274.023 L 214.453 281.250 218.945 281.250 L 223.438 281.250 223.438 282.813 L 223.438 284.375 217.188 284.375 L 210.938 284.375 210.938 275.586 L 210.938 266.797 212.695 266.797 L 214.453 266.797 214.453 274.023 M278.367 267.798 C 280.415 269.329,281.042 270.559,281.042 273.047 C 281.042 277.076,278.879 278.821,273.426 279.195 L 270.313 279.409 270.313 281.892 L 270.313 284.375 268.555 284.375 L 266.797 284.375 266.797 275.556 L 266.797 266.736 272.043 266.864 C 276.613 266.976,277.429 267.096,278.367 267.798 M230.585 270.687 C 228.298 272.082,227.356 275.896,228.671 278.438 C 230.973 282.891,237.377 282.154,238.688 277.286 C 240.062 272.180,234.956 268.022,230.585 270.687 M251.336 270.658 C 249.824 271.581,248.828 273.640,248.830 275.840 C 248.835 281.651,256.507 283.437,259.035 278.216 C 261.516 273.092,256.086 267.762,251.336 270.658 M270.394 272.949 L 270.508 275.977 272.266 276.104 C 276.178 276.388,278.258 274.664,277.304 271.929 C 276.797 270.475,275.507 269.922,272.621 269.922 L 270.280 269.922 270.394 272.949 " stroke="none" fill="#fbfbfb" fill-rule="evenodd"></path><path id="path1" d="M177.246 129.587 C 178.804 129.661,181.353 129.661,182.910 129.587 C 184.468 129.513,183.193 129.452,180.078 129.452 C 176.963 129.452,175.688 129.513,177.246 129.587 M152.514 134.082 L 151.367 135.352 152.637 134.204 C 153.335 133.573,153.906 133.002,153.906 132.935 C 153.906 132.633,153.584 132.899,152.514 134.082 M183.902 133.493 C 185.253 133.569,187.363 133.569,188.590 133.491 C 189.816 133.414,188.711 133.351,186.133 133.352 C 183.555 133.353,182.551 133.416,183.902 133.493 M159.088 136.323 C 153.927 139.528,147.231 145.373,144.265 149.262 C 143.051 150.854,141.797 151.731,141.797 150.988 C 141.797 150.347,143.800 146.475,144.654 145.464 C 145.219 144.796,145.861 143.829,146.082 143.316 C 146.485 142.378,146.815 141.814,148.227 139.650 C 148.891 138.632,148.901 138.550,148.301 139.033 C 144.298 142.247,136.901 158.076,135.278 166.898 L 134.578 170.703 130.584 170.703 C 127.035 170.703,126.545 170.787,126.186 171.459 C 125.029 173.620,125.240 173.896,136.116 184.477 C 149.806 197.795,147.434 197.869,161.754 183.678 C 171.751 173.771,172.101 173.273,170.313 171.484 C 169.641 170.813,169.010 170.703,165.820 170.703 C 161.459 170.703,161.603 170.963,163.246 166.059 C 165.775 158.510,170.923 151.837,177.493 147.590 C 180.133 145.884,180.589 145.518,179.478 145.998 C 176.392 147.330,172.711 149.432,172.203 150.152 C 172.056 150.361,171.688 150.259,171.343 149.915 C 171.012 149.583,170.864 149.165,171.015 148.985 C 171.166 148.806,171.025 148.858,170.702 149.102 C 170.256 149.438,169.933 149.412,169.358 148.991 C 168.838 148.611,168.774 148.438,169.153 148.438 C 169.543 148.438,169.465 148.197,168.884 147.617 C 168.186 146.918,167.933 146.866,167.184 147.268 C 166.333 147.723,166.312 147.694,166.559 146.378 C 166.778 145.212,166.697 144.987,165.995 144.803 C 165.545 144.686,165.081 144.225,164.965 143.779 C 164.848 143.333,164.597 142.947,164.408 142.920 C 164.218 142.893,163.887 142.827,163.672 142.773 C 163.457 142.720,163.062 142.641,162.793 142.599 C 162.524 142.558,162.629 142.395,163.026 142.239 C 163.718 141.967,163.719 141.932,163.049 141.388 C 162.477 140.923,162.410 140.920,162.681 141.369 C 162.900 141.733,162.866 141.828,162.577 141.649 C 162.339 141.502,162.237 141.137,162.352 140.838 C 162.564 140.285,161.162 139.268,160.636 139.593 C 160.480 139.690,160.352 139.361,160.352 138.862 C 160.352 138.364,160.517 137.985,160.719 138.021 C 160.921 138.057,161.138 137.734,161.200 137.305 C 161.263 136.875,161.215 136.743,161.093 137.012 C 160.760 137.748,160.324 137.598,160.324 136.747 C 160.324 136.334,160.418 136.047,160.533 136.112 C 160.648 136.176,161.081 135.899,161.494 135.497 C 162.667 134.356,161.749 134.671,159.088 136.323 M149.780 137.207 L 148.633 138.477 149.902 137.329 C 151.086 136.260,151.351 135.938,151.050 135.938 C 150.982 135.938,150.411 136.509,149.780 137.207 M232.422 140.174 C 232.422 140.355,232.801 140.839,233.264 141.248 L 234.105 141.992 233.414 140.918 C 232.701 139.810,232.422 139.601,232.422 140.174 M184.961 143.541 C 183.452 144.231,184.154 144.242,185.938 143.555 C 186.689 143.265,187.041 143.023,186.719 143.016 C 186.396 143.009,185.605 143.245,184.961 143.541 M198.125 146.521 C 198.003 151.741,200.194 152.873,203.532 149.316 L 205.273 147.461 203.501 149.121 C 200.260 152.156,198.552 151.216,198.339 146.278 L 198.204 143.164 198.125 146.521 M224.865 144.855 C 223.566 146.291,224.466 148.438,226.367 148.438 C 227.451 148.438,228.527 147.483,228.489 146.554 C 228.469 146.058,228.360 146.110,228.043 146.769 C 227.214 148.485,224.609 147.986,224.609 146.111 C 224.609 144.564,226.974 143.939,228.006 145.215 C 228.505 145.832,228.517 145.813,228.133 145.020 C 227.602 143.924,225.790 143.833,224.865 144.855 M229.092 145.719 C 228.927 145.985,229.222 146.034,229.948 145.859 C 231.444 145.500,231.586 145.313,230.362 145.313 C 229.801 145.313,229.230 145.495,229.092 145.719 M237.580 146.112 C 236.973 147.083,234.916 147.127,233.861 146.191 C 233.113 145.528,233.103 145.534,233.548 146.382 C 233.999 147.241,235.744 147.980,236.213 147.511 C 236.344 147.380,236.716 147.491,237.039 147.757 C 237.521 148.155,237.589 148.136,237.419 147.656 C 237.305 147.334,237.480 146.762,237.809 146.384 C 238.138 146.007,238.328 145.620,238.232 145.523 C 238.135 145.427,237.842 145.692,237.580 146.112 M171.094 150.586 C 171.094 150.908,170.840 151.172,170.531 151.172 C 169.878 151.172,169.438 150.614,169.802 150.250 C 170.269 149.783,171.094 149.998,171.094 150.586 M154.210 156.940 C 155.826 157.783,155.859 157.785,155.859 157.025 C 155.859 154.745,157.565 156.525,158.111 159.375 C 158.609 161.971,158.807 161.758,155.813 161.843 C 153.051 161.923,152.036 160.975,154.134 160.276 L 155.185 159.925 154.253 159.324 C 148.555 155.650,141.423 159.478,141.423 166.211 C 141.423 170.501,145.115 174.609,148.969 174.609 C 149.490 174.609,149.997 174.829,150.096 175.098 C 151.159 177.990,144.947 176.337,141.948 172.931 C 134.707 164.705,144.530 151.895,154.210 156.940 M150.470 163.184 L 150.586 165.820 152.831 166.992 C 156.755 169.041,155.579 170.232,151.545 168.296 L 148.828 166.992 148.828 163.770 C 148.828 160.832,148.896 160.547,149.592 160.547 C 150.262 160.547,150.369 160.867,150.470 163.184 M150.223 203.348 C 149.503 204.068,149.464 204.468,150.014 205.494 C 150.755 206.880,153.125 206.227,153.125 204.637 C 153.125 203.832,152.111 202.734,151.367 202.734 C 151.076 202.734,150.561 203.011,150.223 203.348 M164.844 205.078 C 163.922 205.999,163.865 206.612,164.607 207.626 C 165.082 208.277,165.034 208.641,164.218 210.533 C 163.704 211.722,163.549 212.352,163.872 211.932 C 164.195 211.513,164.669 210.590,164.926 209.882 C 165.264 208.946,165.631 208.594,166.267 208.594 C 167.145 208.594,168.359 207.296,168.359 206.358 C 168.359 205.672,166.926 204.297,166.211 204.297 C 165.889 204.297,165.273 204.648,164.844 205.078 M154.489 207.571 C 152.355 209.132,154.187 212.702,156.962 212.389 C 158.179 212.252,158.711 212.350,158.860 212.740 C 158.974 213.038,159.252 213.281,159.477 213.281 C 159.702 213.281,159.582 212.944,159.209 212.532 C 158.671 211.938,158.621 211.617,158.963 210.978 C 160.287 208.504,156.822 205.866,154.489 207.571 M156.445 217.188 C 156.138 217.685,157.043 217.685,157.813 217.188 C 158.289 216.880,158.238 216.808,157.543 216.803 C 157.072 216.800,156.578 216.973,156.445 217.188 M230.354 267.036 C 226.517 268.216,223.792 272.663,224.362 276.818 C 225.889 287.963,242.538 286.836,242.566 275.586 C 242.581 269.303,236.601 265.116,230.354 267.036 M251.951 266.750 C 242.628 269.790,242.910 282.475,252.344 284.435 C 260.725 286.177,266.677 276.339,261.235 269.737 C 259.216 267.287,254.729 265.844,251.951 266.750 M117.969 275.586 L 117.969 284.375 124.414 284.375 L 130.859 284.375 130.859 282.813 L 130.859 281.250 126.172 281.250 L 121.484 281.250 121.484 279.102 L 121.484 276.953 125.586 276.953 L 129.688 276.953 129.688 275.391 L 129.688 273.828 125.586 273.828 L 121.484 273.828 121.484 271.875 L 121.484 269.922 126.172 269.922 L 130.859 269.922 130.859 268.359 L 130.859 266.797 124.414 266.797 L 117.969 266.797 117.969 275.586 M132.422 267.165 C 132.422 267.391,133.938 271.365,135.790 275.995 L 139.158 284.414 140.966 284.297 L 142.773 284.180 146.175 275.781 C 150.204 265.835,150.035 266.797,147.753 266.797 L 145.897 266.797 143.975 271.973 C 142.918 274.819,141.800 277.761,141.491 278.510 L 140.928 279.871 139.661 276.361 C 138.963 274.431,137.881 271.533,137.255 269.922 L 136.117 266.992 134.269 266.873 C 133.161 266.802,132.422 266.919,132.422 267.165 M152.344 275.586 L 152.344 284.375 158.789 284.375 L 165.234 284.375 165.234 282.813 L 165.234 281.250 160.547 281.250 C 155.313 281.250,155.854 281.578,155.714 278.320 L 155.664 277.148 159.863 277.038 L 164.063 276.927 164.063 275.377 L 164.063 273.828 159.863 273.828 L 155.664 273.828 155.677 271.972 L 155.690 270.117 160.267 270.007 L 164.844 269.897 164.844 268.347 L 164.844 266.797 158.594 266.797 L 152.344 266.797 152.344 275.586 M168.359 275.586 L 168.359 284.375 170.107 284.375 L 171.854 284.375 171.962 278.614 L 172.070 272.853 176.528 278.614 C 180.897 284.259,181.017 284.375,182.485 284.375 L 183.984 284.375 183.984 275.586 L 183.984 266.797 182.237 266.797 L 180.490 266.797 180.382 272.439 L 180.273 278.082 175.844 272.439 C 171.490 266.894,171.388 266.797,169.887 266.797 L 168.359 266.797 168.359 275.586 M186.719 268.359 L 186.719 269.922 189.453 269.922 L 192.188 269.922 192.188 277.148 L 192.188 284.375 193.937 284.375 L 195.686 284.375 195.792 277.246 L 195.898 270.117 198.730 270.002 L 201.563 269.888 201.563 268.342 L 201.563 266.797 194.141 266.797 L 186.719 266.797 186.719 268.359 M210.938 275.586 L 210.938 284.375 216.992 284.375 L 223.047 284.375 223.047 282.813 L 223.047 281.250 218.750 281.250 L 214.453 281.250 214.453 274.023 L 214.453 266.797 212.695 266.797 L 210.938 266.797 210.938 275.586 M266.797 275.586 L 266.797 284.375 268.555 284.375 L 270.313 284.375 270.313 281.881 C 270.313 278.998,270.419 278.921,274.420 278.912 C 278.634 278.902,281.035 276.738,280.978 272.999 C 280.910 268.478,278.313 266.797,271.402 266.797 L 266.797 266.797 266.797 275.586 M235.791 270.336 C 240.093 272.418,240.045 278.996,235.714 280.912 C 229.960 283.457,225.309 276.174,229.605 271.348 C 231.226 269.527,233.388 269.173,235.791 270.336 M257.298 270.761 C 260.995 273.005,260.297 279.390,256.176 281.039 C 252.370 282.561,248.828 279.933,248.828 275.586 C 248.828 270.685,253.133 268.233,257.298 270.761 M276.608 270.661 C 279.313 272.852,277.428 275.898,273.235 276.110 L 270.313 276.257 270.313 273.090 L 270.313 269.922 273.004 269.922 C 275.062 269.922,275.909 270.096,276.608 270.661 " stroke="none" fill="#1d50ac" fill-rule="evenodd"></path><path id="path2" d="M232.365 200.522 C 226.959 209.658,216.943 215.544,205.566 216.269 L 201.563 216.525 201.563 213.003 C 201.563 210.031,201.436 209.320,200.753 208.451 C 199.065 206.306,198.665 206.584,188.019 217.285 C 175.030 230.341,175.143 229.833,183.368 238.276 C 186.197 241.179,190.600 245.708,193.153 248.340 C 199.519 254.904,201.074 254.848,201.264 248.047 L 201.367 244.336 205.584 244.075 C 225.161 242.862,243.533 231.916,254.647 214.844 C 255.419 213.657,255.428 213.605,254.713 214.453 C 254.261 214.990,253.556 215.825,253.147 216.309 C 251.785 217.918,250.000 217.306,250.000 215.229 C 250.000 214.395,248.795 213.896,247.656 214.258 C 247.133 214.424,246.875 214.328,246.875 213.968 C 246.875 213.673,246.188 212.915,245.349 212.283 C 244.510 211.652,243.896 211.018,243.984 210.874 C 244.256 210.436,242.161 208.203,241.478 208.203 C 241.126 208.203,240.210 207.544,239.444 206.738 C 236.804 203.963,234.511 202.389,233.496 202.657 C 233.085 202.766,233.132 201.221,233.587 199.633 C 234.143 197.695,233.957 197.830,232.365 200.522 M163.530 211.208 C 162.722 212.998,160.274 213.553,159.302 212.166 C 158.866 211.543,158.706 211.511,158.283 211.963 C 157.981 212.286,157.943 212.519,158.188 212.549 C 158.411 212.576,158.755 212.620,158.952 212.646 C 159.532 212.726,159.940 213.281,159.417 213.281 C 159.154 213.281,159.053 213.468,159.194 213.695 C 159.590 214.336,158.576 216.406,157.863 216.412 C 157.355 216.417,157.334 216.486,157.759 216.756 C 158.209 217.040,158.209 217.127,157.759 217.311 C 157.466 217.431,157.641 217.496,158.148 217.456 C 159.931 217.315,160.060 218.453,158.603 221.466 C 157.538 223.666,157.094 224.219,156.392 224.219 C 154.657 224.219,153.718 226.699,155.011 227.869 C 156.766 229.457,158.848 228.279,158.464 225.916 C 158.056 223.398,160.323 219.273,162.224 219.075 C 164.229 218.867,165.017 219.699,164.424 221.399 C 163.205 224.898,168.259 227.030,169.859 223.692 C 170.887 221.546,169.167 219.360,166.528 219.459 C 165.126 219.512,164.324 218.621,164.857 217.604 C 165.033 217.267,165.264 216.707,165.370 216.357 C 165.752 215.101,170.474 214.972,171.909 216.179 C 173.771 217.746,176.172 216.674,176.172 214.276 C 176.172 212.205,173.038 210.815,171.793 212.333 C 170.315 214.134,169.912 214.364,167.771 214.632 C 164.795 215.004,163.103 213.731,164.248 211.983 C 164.693 211.305,164.792 210.775,164.554 210.350 C 164.266 209.837,164.078 209.995,163.530 211.208 M150.277 216.147 C 150.420 216.379,150.259 216.439,149.881 216.294 C 149.531 216.160,149.123 216.245,148.976 216.484 C 148.804 216.762,148.904 216.816,149.256 216.633 C 149.628 216.440,149.612 216.515,149.205 216.866 C 148.874 217.150,148.664 217.734,148.737 218.164 C 148.849 218.822,148.800 218.853,148.427 218.359 C 148.077 217.896,148.035 218.019,148.227 218.945 C 148.913 222.246,154.297 222.191,154.297 218.883 C 154.297 218.584,154.795 218.240,155.404 218.118 C 156.012 217.997,156.510 217.647,156.510 217.341 C 156.510 216.738,155.082 216.984,154.645 217.662 C 154.514 217.865,154.018 217.534,153.542 216.926 C 153.066 216.318,152.786 216.038,152.921 216.304 C 153.082 216.622,152.959 216.708,152.562 216.556 C 152.229 216.429,152.037 216.196,152.133 216.040 C 152.230 215.883,151.798 215.755,151.172 215.755 C 150.511 215.755,150.136 215.919,150.277 216.147 M210.174 221.564 C 216.766 224.397,215.950 234.843,208.991 236.717 C 206.032 237.514,200.217 237.069,200.070 236.035 C 199.947 235.169,200.008 235.156,204.308 235.156 C 210.456 235.156,212.344 234.041,213.100 229.964 C 213.971 225.263,210.971 222.673,204.576 222.606 C 197.062 222.527,196.941 222.504,197.419 221.257 C 197.756 220.379,207.993 220.626,210.174 221.564 M202.550 224.626 C 203.270 225.793,201.872 226.197,197.501 226.086 C 193.339 225.981,193.159 225.941,193.039 225.098 C 192.901 224.123,201.961 223.674,202.550 224.626 M209.361 224.902 C 209.354 225.063,209.096 225.635,208.789 226.172 C 207.974 227.598,208.079 228.125,209.180 228.125 C 210.743 228.125,210.309 228.999,206.574 233.372 C 205.844 234.228,205.869 233.153,206.613 231.694 C 207.628 229.705,207.643 229.798,206.259 229.494 L 205.096 229.239 206.265 226.924 C 207.312 224.850,209.429 223.468,209.361 224.902 M198.145 227.989 C 199.255 228.144,199.609 228.374,199.609 228.941 C 199.609 229.647,199.247 229.688,192.969 229.688 C 186.661 229.688,186.328 229.650,186.328 228.931 C 186.328 228.368,186.653 228.137,187.598 228.027 C 189.636 227.791,196.549 227.765,198.145 227.989 M202.653 232.633 C 202.763 233.398,202.580 233.430,198.161 233.415 C 193.668 233.399,193.552 233.377,193.428 232.507 C 193.302 231.616,193.308 231.615,197.920 231.726 C 202.230 231.829,202.547 231.889,202.653 232.633 M152.121 275.586 C 152.121 280.527,152.177 282.495,152.245 279.958 C 152.313 277.422,152.313 273.379,152.245 270.974 C 152.176 268.569,152.120 270.645,152.121 275.586 M164.950 268.359 C 164.950 269.326,165.026 269.722,165.119 269.238 C 165.213 268.755,165.213 267.964,165.119 267.480 C 165.026 266.997,164.950 267.393,164.950 268.359 M155.604 277.556 C 155.476 277.887,155.482 278.268,155.616 278.402 C 155.750 278.536,155.859 278.360,155.859 278.010 C 155.859 277.481,156.434 277.352,159.277 277.244 L 162.695 277.114 159.265 277.033 C 156.483 276.968,155.791 277.067,155.604 277.556 M272.369 279.187 C 272.962 279.276,273.841 279.274,274.322 279.181 C 274.802 279.089,274.316 279.015,273.242 279.018 C 272.168 279.021,271.775 279.097,272.369 279.187 M223.153 282.813 C 223.153 283.779,223.229 284.175,223.323 283.691 C 223.416 283.208,223.416 282.417,223.323 281.934 C 223.229 281.450,223.153 281.846,223.153 282.813 " stroke="none" fill="#d738ac" fill-rule="evenodd"></path><path id="path3" d="M239.844 147.246 C 239.844 147.450,240.986 148.162,242.383 148.828 C 244.653 149.912,244.922 150.161,244.922 151.183 C 244.922 152.870,246.564 153.889,247.991 153.088 C 250.574 151.639,248.829 147.695,246.104 148.824 C 245.152 149.218,244.710 149.123,242.635 148.075 C 240.023 146.757,239.844 146.704,239.844 147.246 M237.385 147.916 C 237.273 148.098,237.766 149.240,238.480 150.453 C 239.581 152.322,239.745 152.914,239.557 154.319 C 239.248 156.625,241.726 158.118,243.281 156.562 C 244.630 155.214,243.407 152.351,241.476 152.335 C 240.616 152.328,240.177 151.905,239.010 149.956 C 238.229 148.652,237.498 147.734,237.385 147.916 M248.242 164.921 C 247.166 165.532,228.434 183.899,227.846 184.919 C 226.296 187.607,228.103 189.063,232.990 189.063 C 235.041 189.063,236.719 189.175,236.719 189.313 C 236.719 189.682,235.218 194.689,234.139 197.920 C 233.214 200.690,232.927 202.807,233.496 202.657 C 234.511 202.389,236.804 203.963,239.444 206.738 C 240.210 207.544,241.126 208.203,241.478 208.203 C 242.161 208.203,244.256 210.436,243.984 210.874 C 243.896 211.018,244.510 211.652,245.349 212.283 C 246.188 212.915,246.875 213.673,246.875 213.968 C 246.875 214.328,247.133 214.424,247.656 214.258 C 248.795 213.896,250.000 214.395,250.000 215.229 C 250.000 216.971,251.237 217.762,252.595 216.889 C 255.766 214.850,262.231 200.983,264.006 192.415 L 264.659 189.258 268.250 189.146 C 272.111 189.025,273.438 188.270,273.438 186.195 C 273.438 185.298,254.483 165.976,252.656 165.010 C 251.399 164.346,249.327 164.304,248.242 164.921 M254.297 184.205 C 254.297 184.326,253.066 186.160,251.563 188.281 C 248.205 193.017,248.199 192.852,251.732 193.030 C 255.457 193.218,255.538 193.345,253.493 195.799 C 251.120 198.645,243.625 206.646,243.473 206.494 C 243.404 206.425,244.493 204.169,245.893 201.480 C 249.063 195.391,249.084 195.703,245.508 195.703 C 243.850 195.703,242.578 195.537,242.578 195.319 C 242.578 195.108,243.896 192.609,245.508 189.767 C 247.119 186.924,248.438 184.460,248.438 184.291 C 248.438 184.122,249.756 183.984,251.367 183.984 C 252.979 183.984,254.297 184.083,254.297 184.205 " stroke="none" fill="#f5a12d" fill-rule="evenodd"></path><path id="path4" d="M198.693 106.183 C 198.197 106.732,198.047 107.680,198.047 110.271 C 198.047 114.317,198.113 114.259,193.164 114.564 C 178.697 115.457,164.123 122.329,153.345 133.339 C 151.210 135.520,149.816 137.041,150.248 136.719 C 150.680 136.396,150.317 136.821,149.442 137.663 C 148.567 138.505,148.090 139.054,148.380 138.884 C 148.733 138.678,148.686 138.916,148.240 139.597 C 147.872 140.159,147.426 140.529,147.250 140.420 C 147.073 140.311,146.802 140.427,146.646 140.679 C 146.470 140.965,146.533 141.032,146.815 140.858 C 147.486 140.442,147.367 141.617,146.680 142.188 C 146.357 142.455,146.094 142.892,146.094 143.158 C 146.094 143.425,145.543 144.326,144.870 145.161 C 143.855 146.420,141.797 150.323,141.797 150.988 C 141.797 151.731,143.051 150.854,144.265 149.262 C 147.288 145.297,154.069 139.404,159.181 136.299 C 161.949 134.617,162.648 134.375,161.494 135.497 C 161.081 135.899,160.648 136.176,160.533 136.112 C 160.418 136.047,160.324 136.334,160.324 136.747 C 160.324 137.598,160.760 137.748,161.093 137.012 C 161.215 136.743,161.263 136.875,161.200 137.305 C 161.138 137.734,160.921 138.057,160.719 138.021 C 160.517 137.985,160.352 138.364,160.352 138.862 C 160.352 139.361,160.480 139.690,160.636 139.593 C 161.162 139.268,162.564 140.285,162.352 140.838 C 162.237 141.137,162.339 141.502,162.577 141.649 C 162.866 141.828,162.900 141.733,162.681 141.369 C 162.410 140.920,162.477 140.923,163.049 141.388 C 163.719 141.932,163.718 141.967,163.026 142.239 C 162.629 142.395,162.524 142.558,162.793 142.599 C 163.062 142.641,163.457 142.720,163.672 142.773 C 163.887 142.827,164.218 142.893,164.408 142.920 C 164.597 142.947,164.848 143.333,164.965 143.779 C 165.081 144.225,165.545 144.686,165.995 144.803 C 166.697 144.987,166.778 145.212,166.559 146.378 C 166.312 147.694,166.333 147.723,167.184 147.268 C 167.933 146.866,168.186 146.918,168.884 147.617 C 169.465 148.197,169.543 148.438,169.153 148.438 C 168.774 148.438,168.838 148.611,169.358 148.991 C 169.933 149.412,170.256 149.438,170.702 149.102 C 171.025 148.858,171.166 148.806,171.015 148.985 C 170.864 149.165,171.012 149.583,171.343 149.915 C 171.688 150.259,172.056 150.361,172.203 150.152 C 172.976 149.055,177.592 146.741,178.225 147.132 C 178.467 147.282,178.521 147.199,178.356 146.932 C 178.025 146.397,179.606 145.700,180.435 146.016 C 180.787 146.150,180.885 146.060,180.705 145.770 C 180.429 145.323,180.900 145.145,181.973 145.292 C 182.263 145.332,182.396 145.196,182.268 144.989 C 181.959 144.489,183.034 144.100,183.853 144.415 C 184.268 144.574,184.408 144.510,184.240 144.238 C 183.896 143.682,186.371 142.860,187.309 143.220 C 187.826 143.418,187.935 143.356,187.711 142.993 C 187.473 142.609,187.693 142.558,188.672 142.773 C 189.597 142.977,189.865 142.928,189.659 142.595 C 189.452 142.260,189.766 142.211,190.838 142.412 C 191.667 142.567,192.207 142.536,192.085 142.339 C 191.963 142.144,193.206 142.047,194.920 142.118 C 198.466 142.265,198.423 142.210,198.432 146.717 C 198.441 151.124,201.020 152.435,203.797 149.442 L 205.273 147.852 203.536 149.414 C 202.580 150.273,206.221 146.582,211.625 141.211 C 225.183 127.737,225.195 129.612,211.456 115.388 C 201.158 104.726,200.465 104.226,198.693 106.183 M201.049 119.553 C 209.156 122.594,209.548 134.086,201.657 137.404 C 199.482 138.319,196.484 138.781,196.484 138.202 C 196.484 137.985,196.232 137.904,195.924 138.022 C 195.615 138.141,195.308 138.115,195.240 137.966 C 195.172 137.817,194.468 137.366,193.675 136.963 C 192.882 136.560,192.129 135.959,192.002 135.628 C 191.536 134.412,192.484 134.314,194.555 135.363 C 202.593 139.437,209.649 129.311,203.240 122.901 C 201.442 121.103,199.312 120.475,196.680 120.965 C 193.376 121.580,185.867 121.164,186.018 120.375 C 186.122 119.828,186.878 119.693,190.825 119.512 C 199.147 119.131,199.932 119.134,201.049 119.553 M198.517 125.455 L 198.633 127.862 200.195 128.299 C 202.158 128.848,202.351 129.910,200.472 129.823 C 197.320 129.678,197.266 129.616,197.266 126.164 C 197.266 122.123,198.327 121.521,198.517 125.455 M192.185 123.730 C 192.184 123.892,191.833 124.551,191.406 125.195 C 190.546 126.494,190.347 129.687,191.016 131.447 C 191.700 133.245,190.879 133.594,185.965 133.594 C 183.343 133.594,181.641 133.440,181.641 133.203 C 181.641 132.988,181.365 132.813,181.028 132.813 C 180.622 132.813,180.457 132.529,180.539 131.975 C 180.658 131.179,180.850 131.142,184.451 131.217 L 188.237 131.295 188.475 129.808 C 188.605 128.990,188.860 127.660,189.042 126.853 C 189.467 124.960,189.363 124.914,184.964 125.063 C 181.312 125.185,180.043 124.833,180.643 123.862 C 180.942 123.378,192.189 123.249,192.185 123.730 M186.328 128.125 C 186.328 128.876,186.068 128.906,179.711 128.906 C 173.368 128.906,172.246 128.715,172.852 127.734 C 173.385 126.872,186.328 127.247,186.328 128.125 M182.910 129.587 C 181.353 129.661,178.804 129.661,177.246 129.587 C 175.688 129.513,176.963 129.452,180.078 129.452 C 183.193 129.452,184.468 129.513,182.910 129.587 M228.974 135.279 C 227.104 137.270,228.376 139.862,231.298 140.012 C 232.335 140.066,233.103 139.928,233.144 139.681 C 233.711 136.315,233.680 136.062,232.600 135.213 C 231.223 134.129,230.034 134.151,228.974 135.279 M246.196 136.925 C 245.727 137.254,245.234 138.108,245.100 138.823 C 244.782 140.515,238.603 143.284,237.289 142.323 C 236.893 142.034,235.900 141.797,235.082 141.797 C 234.263 141.797,233.638 141.665,233.691 141.504 C 233.745 141.343,233.657 141.167,233.496 141.113 C 233.194 141.012,233.184 141.292,233.464 142.022 C 233.842 143.008,232.812 144.551,231.616 144.790 C 230.760 144.961,230.558 145.129,230.926 145.362 C 231.710 145.859,232.502 145.769,232.216 145.215 C 232.077 144.946,232.346 145.166,232.813 145.703 C 233.279 146.240,233.528 146.416,233.365 146.094 C 233.131 145.631,233.227 145.645,233.820 146.157 C 234.480 146.728,236.580 147.113,237.695 146.868 C 237.910 146.821,238.218 146.803,238.379 146.829 C 238.540 146.854,238.672 146.699,238.672 146.484 C 238.672 145.950,238.153 145.994,237.527 146.582 C 237.239 146.853,237.291 146.624,237.643 146.067 C 237.992 145.515,238.318 144.588,238.366 144.007 C 238.420 143.345,238.635 143.021,238.942 143.139 C 239.211 143.242,239.678 143.078,239.981 142.775 C 240.284 142.473,240.618 142.311,240.723 142.416 C 240.828 142.521,241.850 142.238,242.995 141.787 C 244.993 140.999,245.134 140.993,246.548 141.630 C 249.793 143.094,252.495 140.068,250.362 137.357 C 249.423 136.163,247.560 135.970,246.196 136.925 M224.677 144.620 C 224.174 145.123,224.584 146.731,225.404 147.473 C 226.286 148.271,227.596 147.927,227.952 146.803 C 228.131 146.241,228.301 146.137,228.504 146.466 C 228.707 146.794,228.862 146.697,229.004 146.152 C 229.130 145.672,228.990 145.278,228.647 145.147 C 228.288 145.009,228.173 145.106,228.329 145.415 C 228.464 145.681,228.341 145.617,228.056 145.273 C 227.460 144.554,225.183 144.114,224.677 144.620 M169.802 150.250 C 169.438 150.614,169.878 151.172,170.531 151.172 C 170.840 151.172,171.094 150.908,171.094 150.586 C 171.094 149.998,170.269 149.783,169.802 150.250 M154.199 161.994 C 154.683 162.088,155.474 162.088,155.957 161.994 C 156.440 161.901,156.045 161.825,155.078 161.825 C 154.111 161.825,153.716 161.901,154.199 161.994 M138.672 187.232 C 138.672 187.299,139.243 187.870,139.941 188.501 L 141.211 189.648 140.064 188.379 C 138.994 187.196,138.672 186.930,138.672 187.232 " stroke="none" fill="#1ac7ec" fill-rule="evenodd"></path></g></svg>